<mxfile host="app.diagrams.net" modified="2023-11-29T10:08:44.462Z" agent="Mozilla/5.0 (Windows NT 10.0; Win64; x64) AppleWebKit/537.36 (KHTML, like Gecko) Chrome/119.0.0.0 Safari/537.36" etag="ZT4dL5EfNEmz80BgTCJN" version="22.1.4" type="github">
  <diagram name="Page-1" id="xDy0eetTtX8t5qb-2rGi">
    <mxGraphModel dx="2825" dy="1206" grid="1" gridSize="10" guides="1" tooltips="1" connect="1" arrows="1" fold="1" page="1" pageScale="1" pageWidth="850" pageHeight="1100" math="0" shadow="0">
      <root>
        <mxCell id="0" />
        <mxCell id="1" parent="0" />
        <mxCell id="Mp6pbIfyjrRbvAWgAkd_-21" style="edgeStyle=orthogonalEdgeStyle;rounded=0;orthogonalLoop=1;jettySize=auto;html=1;entryX=0;entryY=0.5;entryDx=0;entryDy=0;" edge="1" parent="1" source="Mp6pbIfyjrRbvAWgAkd_-15" target="Mp6pbIfyjrRbvAWgAkd_-18">
          <mxGeometry relative="1" as="geometry" />
        </mxCell>
        <mxCell id="Mp6pbIfyjrRbvAWgAkd_-15" value="Developer&lt;br&gt;" style="points=[[0.35,0,0],[0.98,0.51,0],[1,0.71,0],[0.67,1,0],[0,0.795,0],[0,0.65,0]];verticalLabelPosition=bottom;sketch=0;html=1;verticalAlign=top;aspect=fixed;align=center;pointerEvents=1;shape=mxgraph.cisco19.user;fillColor=#005073;strokeColor=none;" vertex="1" parent="1">
          <mxGeometry x="-10" y="200" width="50" height="50" as="geometry" />
        </mxCell>
        <mxCell id="Mp6pbIfyjrRbvAWgAkd_-102" style="edgeStyle=orthogonalEdgeStyle;rounded=0;orthogonalLoop=1;jettySize=auto;html=1;" edge="1" parent="1" source="Mp6pbIfyjrRbvAWgAkd_-18" target="Mp6pbIfyjrRbvAWgAkd_-87">
          <mxGeometry relative="1" as="geometry" />
        </mxCell>
        <mxCell id="Mp6pbIfyjrRbvAWgAkd_-104" value="Trigger" style="edgeLabel;html=1;align=center;verticalAlign=middle;resizable=0;points=[];" vertex="1" connectable="0" parent="Mp6pbIfyjrRbvAWgAkd_-102">
          <mxGeometry x="-0.3704" y="-1" relative="1" as="geometry">
            <mxPoint as="offset" />
          </mxGeometry>
        </mxCell>
        <mxCell id="Mp6pbIfyjrRbvAWgAkd_-18" value="" style="rounded=1;whiteSpace=wrap;html=1;" vertex="1" parent="1">
          <mxGeometry x="207" y="120" width="613" height="210" as="geometry" />
        </mxCell>
        <mxCell id="Mp6pbIfyjrRbvAWgAkd_-31" style="edgeStyle=orthogonalEdgeStyle;rounded=0;orthogonalLoop=1;jettySize=auto;html=1;" edge="1" parent="1" source="Mp6pbIfyjrRbvAWgAkd_-25" target="Mp6pbIfyjrRbvAWgAkd_-30">
          <mxGeometry relative="1" as="geometry" />
        </mxCell>
        <mxCell id="Mp6pbIfyjrRbvAWgAkd_-25" value="Feature Branch&lt;br&gt;" style="sketch=0;outlineConnect=0;fontColor=#232F3E;gradientColor=none;fillColor=#232F3D;strokeColor=none;dashed=0;verticalLabelPosition=bottom;verticalAlign=top;align=center;html=1;fontSize=12;fontStyle=0;aspect=fixed;pointerEvents=1;shape=mxgraph.aws4.source_code;" vertex="1" parent="1">
          <mxGeometry x="240" y="200" width="29.23" height="40" as="geometry" />
        </mxCell>
        <mxCell id="Mp6pbIfyjrRbvAWgAkd_-33" style="edgeStyle=orthogonalEdgeStyle;rounded=0;orthogonalLoop=1;jettySize=auto;html=1;" edge="1" parent="1" source="Mp6pbIfyjrRbvAWgAkd_-30" target="Mp6pbIfyjrRbvAWgAkd_-32">
          <mxGeometry relative="1" as="geometry" />
        </mxCell>
        <mxCell id="Mp6pbIfyjrRbvAWgAkd_-35" style="edgeStyle=orthogonalEdgeStyle;rounded=0;orthogonalLoop=1;jettySize=auto;html=1;entryX=0.5;entryY=0;entryDx=0;entryDy=0;" edge="1" parent="1" source="Mp6pbIfyjrRbvAWgAkd_-30" target="Mp6pbIfyjrRbvAWgAkd_-34">
          <mxGeometry relative="1" as="geometry">
            <Array as="points">
              <mxPoint x="349" y="370" />
              <mxPoint x="502" y="370" />
            </Array>
          </mxGeometry>
        </mxCell>
        <mxCell id="Mp6pbIfyjrRbvAWgAkd_-105" value="Trigger" style="edgeLabel;html=1;align=center;verticalAlign=middle;resizable=0;points=[];" vertex="1" connectable="0" parent="Mp6pbIfyjrRbvAWgAkd_-35">
          <mxGeometry x="0.1758" y="3" relative="1" as="geometry">
            <mxPoint as="offset" />
          </mxGeometry>
        </mxCell>
        <mxCell id="Mp6pbIfyjrRbvAWgAkd_-30" value="Pull Request&lt;br&gt;" style="shape=image;html=1;verticalAlign=top;verticalLabelPosition=bottom;labelBackgroundColor=#ffffff;imageAspect=0;aspect=fixed;image=https://cdn1.iconfinder.com/data/icons/ionicons-fill-vol-1/512/git-pull-request-128.png" vertex="1" parent="1">
          <mxGeometry x="330" y="201.5" width="37" height="37" as="geometry" />
        </mxCell>
        <mxCell id="Mp6pbIfyjrRbvAWgAkd_-32" value="Review&lt;br&gt;" style="shape=image;html=1;verticalAlign=top;verticalLabelPosition=bottom;labelBackgroundColor=#ffffff;imageAspect=0;aspect=fixed;image=https://cdn3.iconfinder.com/data/icons/marketing-outline-13/64/Review-128.png" vertex="1" parent="1">
          <mxGeometry x="425" y="188" width="64" height="64" as="geometry" />
        </mxCell>
        <mxCell id="Mp6pbIfyjrRbvAWgAkd_-81" style="edgeStyle=orthogonalEdgeStyle;rounded=0;orthogonalLoop=1;jettySize=auto;html=1;" edge="1" parent="1" source="Mp6pbIfyjrRbvAWgAkd_-34" target="Mp6pbIfyjrRbvAWgAkd_-77">
          <mxGeometry relative="1" as="geometry">
            <Array as="points">
              <mxPoint x="880" y="568" />
              <mxPoint x="880" y="390" />
              <mxPoint x="580" y="390" />
            </Array>
          </mxGeometry>
        </mxCell>
        <mxCell id="Mp6pbIfyjrRbvAWgAkd_-106" value="Result" style="edgeLabel;html=1;align=center;verticalAlign=middle;resizable=0;points=[];" vertex="1" connectable="0" parent="Mp6pbIfyjrRbvAWgAkd_-81">
          <mxGeometry x="0.0663" y="-1" relative="1" as="geometry">
            <mxPoint as="offset" />
          </mxGeometry>
        </mxCell>
        <mxCell id="Mp6pbIfyjrRbvAWgAkd_-34" value="" style="rounded=1;whiteSpace=wrap;html=1;" vertex="1" parent="1">
          <mxGeometry x="200" y="410" width="604.75" height="315" as="geometry" />
        </mxCell>
        <mxCell id="Mp6pbIfyjrRbvAWgAkd_-36" value="Integration" style="image;sketch=0;aspect=fixed;html=1;points=[];align=center;fontSize=12;image=img/lib/mscae/Azure_Pipelines.svg;" vertex="1" parent="1">
          <mxGeometry x="744.75" y="435" width="40" height="40" as="geometry" />
        </mxCell>
        <mxCell id="Mp6pbIfyjrRbvAWgAkd_-54" value="" style="rounded=1;whiteSpace=wrap;html=1;" vertex="1" parent="1">
          <mxGeometry x="214.75" y="435" width="60" height="270" as="geometry" />
        </mxCell>
        <mxCell id="Mp6pbIfyjrRbvAWgAkd_-56" value="Build" style="editableCssRules=.*;html=1;shape=image;verticalLabelPosition=bottom;labelBackgroundColor=#ffffff;verticalAlign=top;aspect=fixed;imageAspect=0;image=data:image/svg+xml,PHN2ZyB4bWxucz0iaHR0cDovL3d3dy53My5vcmcvMjAwMC9zdmciIHhtbG5zOnY9Imh0dHBzOi8vdmVjdGEuaW8vbmFubyIgd2lkdGg9IjE3LjMyOTk5OTkyMzcwNjA1NSIgaGVpZ2h0PSIxOS42MTAwMDA2MTAzNTE1NjIiIHZpZXdCb3g9IjAgMCAxNy4zMjk5OTk5MjM3MDYwNTUgMTkuNjEwMDAwNjEwMzUxNTYyIj4mI3hhOwk8c3R5bGUgdHlwZT0idGV4dC9jc3MiPiYjeGE7CS5zdDB7ZmlsbDojNDI4NWY0O30mI3hhOwkuc3Qxe2ZpbGw6IzY2OWRmNjt9JiN4YTsJLnN0MntmaWxsOiNhZWNiZmE7fSYjeGE7CTwvc3R5bGU+JiN4YTsJPHBhdGggY2xhc3M9InN0MCIgZD0iTTEyLjE4IDcuOThMMTEgNy4yOWwtMy41MiA2LjEgMS4xOC42OCAzLjUyLTIuMDN6IiBmaWxsPSIjNDI4NWY0Ii8+JiN4YTsJPHBhdGggY2xhc3M9InN0MSIgZD0iTTYuMzIgMTIuNzJsMy41My02LjA5LTEuMTktLjY5LTMuNTIgMi4wNHY0LjA2eiIgZmlsbD0iIzY2OWRmNiIvPiYjeGE7CTxwYXRoIGNsYXNzPSJzdDIiIGQ9Ik0zLjc1IDcuOThMMCA1LjgxdjkuMmw3Ljk3IDQuNnYtNC4zM2wtNC4yMi0yLjQ0em05LjEzLTEuMmwzLjc2LTIuMTdMOC42NiAwIC42OCA0LjYxbDMuNzYgMi4xNyA0LjIyLTIuNDR6TTkuMzUgMTkuNjFsNy45OC00LjZ2LTkuMmwtMy43NiAyLjE3djQuODZsLTQuMjIgMi40NHoiIGZpbGw9IiNhZWNiZmEiLz4mI3hhOzwvc3ZnPg==;" vertex="1" parent="1">
          <mxGeometry x="224.75" y="525" width="34" height="40" as="geometry" />
        </mxCell>
        <mxCell id="Mp6pbIfyjrRbvAWgAkd_-57" value="" style="rounded=1;whiteSpace=wrap;html=1;" vertex="1" parent="1">
          <mxGeometry x="284.75" y="435" width="100" height="270" as="geometry" />
        </mxCell>
        <mxCell id="Mp6pbIfyjrRbvAWgAkd_-58" value="unit test&lt;br&gt;" style="image;aspect=fixed;html=1;points=[];align=center;fontSize=12;image=img/lib/azure2/general/Web_Test.svg;" vertex="1" parent="1">
          <mxGeometry x="313.5" y="475" width="41" height="41" as="geometry" />
        </mxCell>
        <mxCell id="Mp6pbIfyjrRbvAWgAkd_-59" value="Component Test&lt;br&gt;" style="image;aspect=fixed;html=1;points=[];align=center;fontSize=12;image=img/lib/azure2/other/Test_Base.svg;" vertex="1" parent="1">
          <mxGeometry x="313.5" y="570" width="42.5" height="30" as="geometry" />
        </mxCell>
        <mxCell id="Mp6pbIfyjrRbvAWgAkd_-60" value="" style="rounded=1;whiteSpace=wrap;html=1;" vertex="1" parent="1">
          <mxGeometry x="391.75" y="435" width="93" height="270" as="geometry" />
        </mxCell>
        <mxCell id="Mp6pbIfyjrRbvAWgAkd_-61" value="Code Coverage&lt;br&gt;" style="shape=image;html=1;verticalAlign=top;verticalLabelPosition=bottom;labelBackgroundColor=#ffffff;imageAspect=0;aspect=fixed;image=https://cdn4.iconfinder.com/data/icons/internet-networking-and-communication-glyph-24/24/Coverage_level_signal_bars_signal_strength_wireless_connectivity_wireless_internet-128.png" vertex="1" parent="1">
          <mxGeometry x="414.37" y="515" width="50" height="50" as="geometry" />
        </mxCell>
        <mxCell id="Mp6pbIfyjrRbvAWgAkd_-64" value="" style="rounded=1;whiteSpace=wrap;html=1;" vertex="1" parent="1">
          <mxGeometry x="489.75" y="435" width="105" height="270" as="geometry" />
        </mxCell>
        <mxCell id="Mp6pbIfyjrRbvAWgAkd_-65" value="Sonar cube" style="sketch=0;points=[[0.015,0.015,0],[0.985,0.015,0],[0.985,0.985,0],[0.015,0.985,0],[0.25,0,0],[0.5,0,0],[0.75,0,0],[1,0.25,0],[1,0.5,0],[1,0.75,0],[0.75,1,0],[0.5,1,0],[0.25,1,0],[0,0.75,0],[0,0.5,0],[0,0.25,0]];verticalLabelPosition=bottom;html=1;verticalAlign=top;aspect=fixed;align=center;pointerEvents=1;shape=mxgraph.cisco19.rect;prIcon=anomaly_detection;fillColor=#FAFAFA;strokeColor=#005073;" vertex="1" parent="1">
          <mxGeometry x="514.75" y="438.5" width="50" height="50" as="geometry" />
        </mxCell>
        <mxCell id="Mp6pbIfyjrRbvAWgAkd_-66" value="Nexus Scan" style="shape=image;html=1;verticalAlign=top;verticalLabelPosition=bottom;labelBackgroundColor=#ffffff;imageAspect=0;aspect=fixed;image=https://cdn1.iconfinder.com/data/icons/seo-and-web-development-6/32/development_listing_search_magnifier_magnifying_glass_loupe-128.png" vertex="1" parent="1">
          <mxGeometry x="514.75" y="528.5" width="50" height="50" as="geometry" />
        </mxCell>
        <mxCell id="Mp6pbIfyjrRbvAWgAkd_-67" value="Vera Code&amp;nbsp;&lt;br&gt;Scan" style="fillColor=#28A8E0;verticalLabelPosition=bottom;sketch=0;html=1;strokeColor=#ffffff;verticalAlign=top;align=center;points=[[0.145,0.145,0],[0.5,0,0],[0.855,0.145,0],[1,0.5,0],[0.855,0.855,0],[0.5,1,0],[0.145,0.855,0],[0,0.5,0]];pointerEvents=1;shape=mxgraph.cisco_safe.compositeIcon;bgIcon=ellipse;resIcon=mxgraph.cisco_safe.capability.anomaly_detection;" vertex="1" parent="1">
          <mxGeometry x="518.25" y="618.5" width="43" height="43" as="geometry" />
        </mxCell>
        <mxCell id="Mp6pbIfyjrRbvAWgAkd_-68" value="" style="rounded=1;whiteSpace=wrap;html=1;" vertex="1" parent="1">
          <mxGeometry x="604.75" y="435" width="90" height="270" as="geometry" />
        </mxCell>
        <mxCell id="Mp6pbIfyjrRbvAWgAkd_-69" value="Report&amp;nbsp;&lt;br&gt;Publish" style="shape=image;html=1;verticalAlign=top;verticalLabelPosition=bottom;labelBackgroundColor=#ffffff;imageAspect=0;aspect=fixed;image=https://cdn3.iconfinder.com/data/icons/software-engineering-and-video-gaming/512/602_Launch_mission_shuttle_startup_publish-128.png" vertex="1" parent="1">
          <mxGeometry x="620.25" y="520.5" width="59" height="59" as="geometry" />
        </mxCell>
        <mxCell id="Mp6pbIfyjrRbvAWgAkd_-76" value="Master Branch&lt;br&gt;" style="sketch=0;outlineConnect=0;fontColor=#232F3E;gradientColor=none;fillColor=#232F3D;strokeColor=none;dashed=0;verticalLabelPosition=bottom;verticalAlign=top;align=center;html=1;fontSize=12;fontStyle=0;aspect=fixed;pointerEvents=1;shape=mxgraph.aws4.source_code;" vertex="1" parent="1">
          <mxGeometry x="679.25" y="198.5" width="29.23" height="40" as="geometry" />
        </mxCell>
        <mxCell id="Mp6pbIfyjrRbvAWgAkd_-82" style="edgeStyle=orthogonalEdgeStyle;rounded=0;orthogonalLoop=1;jettySize=auto;html=1;" edge="1" parent="1" source="Mp6pbIfyjrRbvAWgAkd_-77" target="Mp6pbIfyjrRbvAWgAkd_-76">
          <mxGeometry relative="1" as="geometry">
            <Array as="points">
              <mxPoint x="640" y="220" />
              <mxPoint x="640" y="220" />
            </Array>
          </mxGeometry>
        </mxCell>
        <mxCell id="Mp6pbIfyjrRbvAWgAkd_-103" value="Merge" style="edgeLabel;html=1;align=center;verticalAlign=middle;resizable=0;points=[];" vertex="1" connectable="0" parent="Mp6pbIfyjrRbvAWgAkd_-82">
          <mxGeometry x="-0.061" y="-2" relative="1" as="geometry">
            <mxPoint as="offset" />
          </mxGeometry>
        </mxCell>
        <mxCell id="Mp6pbIfyjrRbvAWgAkd_-77" value="Merge Check List" style="shape=image;html=1;verticalAlign=top;verticalLabelPosition=bottom;labelBackgroundColor=#ffffff;imageAspect=0;aspect=fixed;image=https://cdn0.iconfinder.com/data/icons/phosphor-thin-vol-3/256/list-checks-thin-128.png" vertex="1" parent="1">
          <mxGeometry x="544.75" y="183" width="60" height="60" as="geometry" />
        </mxCell>
        <mxCell id="Mp6pbIfyjrRbvAWgAkd_-78" style="edgeStyle=orthogonalEdgeStyle;rounded=0;orthogonalLoop=1;jettySize=auto;html=1;entryX=0.025;entryY=0.604;entryDx=0;entryDy=0;entryPerimeter=0;" edge="1" parent="1" source="Mp6pbIfyjrRbvAWgAkd_-32" target="Mp6pbIfyjrRbvAWgAkd_-77">
          <mxGeometry relative="1" as="geometry" />
        </mxCell>
        <mxCell id="Mp6pbIfyjrRbvAWgAkd_-107" value="Result" style="edgeLabel;html=1;align=center;verticalAlign=middle;resizable=0;points=[];" vertex="1" connectable="0" parent="Mp6pbIfyjrRbvAWgAkd_-78">
          <mxGeometry x="-0.3991" y="-1" relative="1" as="geometry">
            <mxPoint as="offset" />
          </mxGeometry>
        </mxCell>
        <mxCell id="Mp6pbIfyjrRbvAWgAkd_-83" value="Github&lt;br&gt;" style="dashed=0;outlineConnect=0;html=1;align=center;labelPosition=center;verticalLabelPosition=bottom;verticalAlign=top;shape=mxgraph.weblogos.github" vertex="1" parent="1">
          <mxGeometry x="754.75" y="138" width="50" height="50" as="geometry" />
        </mxCell>
        <mxCell id="Mp6pbIfyjrRbvAWgAkd_-85" style="edgeStyle=orthogonalEdgeStyle;rounded=0;orthogonalLoop=1;jettySize=auto;html=1;entryX=1;entryY=0.5;entryDx=0;entryDy=0;" edge="1" parent="1" source="Mp6pbIfyjrRbvAWgAkd_-77" target="Mp6pbIfyjrRbvAWgAkd_-77">
          <mxGeometry relative="1" as="geometry" />
        </mxCell>
        <mxCell id="Mp6pbIfyjrRbvAWgAkd_-86" value="Merge Conflits" style="edgeLabel;html=1;align=center;verticalAlign=middle;resizable=0;points=[];" vertex="1" connectable="0" parent="Mp6pbIfyjrRbvAWgAkd_-85">
          <mxGeometry x="-0.4674" y="-2" relative="1" as="geometry">
            <mxPoint as="offset" />
          </mxGeometry>
        </mxCell>
        <mxCell id="Mp6pbIfyjrRbvAWgAkd_-87" value="" style="rounded=1;whiteSpace=wrap;html=1;" vertex="1" parent="1">
          <mxGeometry x="910" y="67.5" width="1050" height="315" as="geometry" />
        </mxCell>
        <mxCell id="Mp6pbIfyjrRbvAWgAkd_-88" value="Integration" style="image;sketch=0;aspect=fixed;html=1;points=[];align=center;fontSize=12;image=img/lib/mscae/Azure_Pipelines.svg;" vertex="1" parent="1">
          <mxGeometry x="1890" y="80" width="40" height="40" as="geometry" />
        </mxCell>
        <mxCell id="Mp6pbIfyjrRbvAWgAkd_-89" value="" style="rounded=1;whiteSpace=wrap;html=1;" vertex="1" parent="1">
          <mxGeometry x="924.75" y="92.5" width="60" height="270" as="geometry" />
        </mxCell>
        <mxCell id="Mp6pbIfyjrRbvAWgAkd_-90" value="Build" style="editableCssRules=.*;html=1;shape=image;verticalLabelPosition=bottom;labelBackgroundColor=#ffffff;verticalAlign=top;aspect=fixed;imageAspect=0;image=data:image/svg+xml,PHN2ZyB4bWxucz0iaHR0cDovL3d3dy53My5vcmcvMjAwMC9zdmciIHhtbG5zOnY9Imh0dHBzOi8vdmVjdGEuaW8vbmFubyIgd2lkdGg9IjE3LjMyOTk5OTkyMzcwNjA1NSIgaGVpZ2h0PSIxOS42MTAwMDA2MTAzNTE1NjIiIHZpZXdCb3g9IjAgMCAxNy4zMjk5OTk5MjM3MDYwNTUgMTkuNjEwMDAwNjEwMzUxNTYyIj4mI3hhOwk8c3R5bGUgdHlwZT0idGV4dC9jc3MiPiYjeGE7CS5zdDB7ZmlsbDojNDI4NWY0O30mI3hhOwkuc3Qxe2ZpbGw6IzY2OWRmNjt9JiN4YTsJLnN0MntmaWxsOiNhZWNiZmE7fSYjeGE7CTwvc3R5bGU+JiN4YTsJPHBhdGggY2xhc3M9InN0MCIgZD0iTTEyLjE4IDcuOThMMTEgNy4yOWwtMy41MiA2LjEgMS4xOC42OCAzLjUyLTIuMDN6IiBmaWxsPSIjNDI4NWY0Ii8+JiN4YTsJPHBhdGggY2xhc3M9InN0MSIgZD0iTTYuMzIgMTIuNzJsMy41My02LjA5LTEuMTktLjY5LTMuNTIgMi4wNHY0LjA2eiIgZmlsbD0iIzY2OWRmNiIvPiYjeGE7CTxwYXRoIGNsYXNzPSJzdDIiIGQ9Ik0zLjc1IDcuOThMMCA1LjgxdjkuMmw3Ljk3IDQuNnYtNC4zM2wtNC4yMi0yLjQ0em05LjEzLTEuMmwzLjc2LTIuMTdMOC42NiAwIC42OCA0LjYxbDMuNzYgMi4xNyA0LjIyLTIuNDR6TTkuMzUgMTkuNjFsNy45OC00LjZ2LTkuMmwtMy43NiAyLjE3djQuODZsLTQuMjIgMi40NHoiIGZpbGw9IiNhZWNiZmEiLz4mI3hhOzwvc3ZnPg==;" vertex="1" parent="1">
          <mxGeometry x="934.75" y="182.5" width="34" height="40" as="geometry" />
        </mxCell>
        <mxCell id="Mp6pbIfyjrRbvAWgAkd_-91" value="" style="rounded=1;whiteSpace=wrap;html=1;" vertex="1" parent="1">
          <mxGeometry x="994.75" y="92.5" width="100" height="270" as="geometry" />
        </mxCell>
        <mxCell id="Mp6pbIfyjrRbvAWgAkd_-92" value="unit test&lt;br&gt;" style="image;aspect=fixed;html=1;points=[];align=center;fontSize=12;image=img/lib/azure2/general/Web_Test.svg;" vertex="1" parent="1">
          <mxGeometry x="1023.5" y="132.5" width="41" height="41" as="geometry" />
        </mxCell>
        <mxCell id="Mp6pbIfyjrRbvAWgAkd_-93" value="Component Test&lt;br&gt;" style="image;aspect=fixed;html=1;points=[];align=center;fontSize=12;image=img/lib/azure2/other/Test_Base.svg;" vertex="1" parent="1">
          <mxGeometry x="1023.5" y="227.5" width="42.5" height="30" as="geometry" />
        </mxCell>
        <mxCell id="Mp6pbIfyjrRbvAWgAkd_-94" value="" style="rounded=1;whiteSpace=wrap;html=1;" vertex="1" parent="1">
          <mxGeometry x="1101.75" y="92.5" width="93" height="270" as="geometry" />
        </mxCell>
        <mxCell id="Mp6pbIfyjrRbvAWgAkd_-95" value="Code Coverage&lt;br&gt;" style="shape=image;html=1;verticalAlign=top;verticalLabelPosition=bottom;labelBackgroundColor=#ffffff;imageAspect=0;aspect=fixed;image=https://cdn4.iconfinder.com/data/icons/internet-networking-and-communication-glyph-24/24/Coverage_level_signal_bars_signal_strength_wireless_connectivity_wireless_internet-128.png" vertex="1" parent="1">
          <mxGeometry x="1124.37" y="172.5" width="50" height="50" as="geometry" />
        </mxCell>
        <mxCell id="Mp6pbIfyjrRbvAWgAkd_-96" value="" style="rounded=1;whiteSpace=wrap;html=1;" vertex="1" parent="1">
          <mxGeometry x="1199.75" y="92.5" width="105" height="270" as="geometry" />
        </mxCell>
        <mxCell id="Mp6pbIfyjrRbvAWgAkd_-97" value="Sonar cube" style="sketch=0;points=[[0.015,0.015,0],[0.985,0.015,0],[0.985,0.985,0],[0.015,0.985,0],[0.25,0,0],[0.5,0,0],[0.75,0,0],[1,0.25,0],[1,0.5,0],[1,0.75,0],[0.75,1,0],[0.5,1,0],[0.25,1,0],[0,0.75,0],[0,0.5,0],[0,0.25,0]];verticalLabelPosition=bottom;html=1;verticalAlign=top;aspect=fixed;align=center;pointerEvents=1;shape=mxgraph.cisco19.rect;prIcon=anomaly_detection;fillColor=#FAFAFA;strokeColor=#005073;" vertex="1" parent="1">
          <mxGeometry x="1224.75" y="96" width="50" height="50" as="geometry" />
        </mxCell>
        <mxCell id="Mp6pbIfyjrRbvAWgAkd_-98" value="Nexus Scan" style="shape=image;html=1;verticalAlign=top;verticalLabelPosition=bottom;labelBackgroundColor=#ffffff;imageAspect=0;aspect=fixed;image=https://cdn1.iconfinder.com/data/icons/seo-and-web-development-6/32/development_listing_search_magnifier_magnifying_glass_loupe-128.png" vertex="1" parent="1">
          <mxGeometry x="1224.75" y="186" width="50" height="50" as="geometry" />
        </mxCell>
        <mxCell id="Mp6pbIfyjrRbvAWgAkd_-99" value="Vera Code&amp;nbsp;&lt;br&gt;Scan" style="fillColor=#28A8E0;verticalLabelPosition=bottom;sketch=0;html=1;strokeColor=#ffffff;verticalAlign=top;align=center;points=[[0.145,0.145,0],[0.5,0,0],[0.855,0.145,0],[1,0.5,0],[0.855,0.855,0],[0.5,1,0],[0.145,0.855,0],[0,0.5,0]];pointerEvents=1;shape=mxgraph.cisco_safe.compositeIcon;bgIcon=ellipse;resIcon=mxgraph.cisco_safe.capability.anomaly_detection;" vertex="1" parent="1">
          <mxGeometry x="1228.25" y="276" width="43" height="43" as="geometry" />
        </mxCell>
        <mxCell id="Mp6pbIfyjrRbvAWgAkd_-100" value="" style="rounded=1;whiteSpace=wrap;html=1;" vertex="1" parent="1">
          <mxGeometry x="1314.75" y="92.5" width="90" height="270" as="geometry" />
        </mxCell>
        <mxCell id="Mp6pbIfyjrRbvAWgAkd_-101" value="Report&amp;nbsp;&lt;br&gt;Publish" style="shape=image;html=1;verticalAlign=top;verticalLabelPosition=bottom;labelBackgroundColor=#ffffff;imageAspect=0;aspect=fixed;image=https://cdn3.iconfinder.com/data/icons/software-engineering-and-video-gaming/512/602_Launch_mission_shuttle_startup_publish-128.png" vertex="1" parent="1">
          <mxGeometry x="1330.25" y="178" width="59" height="59" as="geometry" />
        </mxCell>
        <mxCell id="Mp6pbIfyjrRbvAWgAkd_-108" value="" style="rounded=1;whiteSpace=wrap;html=1;" vertex="1" parent="1">
          <mxGeometry x="1410" y="96" width="120" height="264" as="geometry" />
        </mxCell>
        <mxCell id="Mp6pbIfyjrRbvAWgAkd_-111" style="edgeStyle=orthogonalEdgeStyle;rounded=0;orthogonalLoop=1;jettySize=auto;html=1;" edge="1" parent="1" source="Mp6pbIfyjrRbvAWgAkd_-109" target="Mp6pbIfyjrRbvAWgAkd_-110">
          <mxGeometry relative="1" as="geometry" />
        </mxCell>
        <mxCell id="Mp6pbIfyjrRbvAWgAkd_-109" value="" style="shape=image;html=1;verticalAlign=top;verticalLabelPosition=bottom;labelBackgroundColor=#ffffff;imageAspect=0;aspect=fixed;image=https://cdn1.iconfinder.com/data/icons/bootstrap-vol-3/16/filetype-yml-128.png" vertex="1" parent="1">
          <mxGeometry x="1449" y="130.5" width="42" height="42" as="geometry" />
        </mxCell>
        <mxCell id="Mp6pbIfyjrRbvAWgAkd_-110" value="Host infra&lt;br&gt;Bundle creator" style="sketch=0;pointerEvents=1;shadow=0;dashed=0;html=1;strokeColor=none;fillColor=#505050;labelPosition=center;verticalLabelPosition=bottom;verticalAlign=top;outlineConnect=0;align=center;shape=mxgraph.office.concepts.settings_office_365;" vertex="1" parent="1">
          <mxGeometry x="1446" y="227.5" width="48" height="48" as="geometry" />
        </mxCell>
        <mxCell id="Mp6pbIfyjrRbvAWgAkd_-112" value="" style="rounded=1;whiteSpace=wrap;html=1;" vertex="1" parent="1">
          <mxGeometry x="1710" y="96" width="100" height="114" as="geometry" />
        </mxCell>
        <mxCell id="Mp6pbIfyjrRbvAWgAkd_-123" style="edgeStyle=orthogonalEdgeStyle;rounded=0;orthogonalLoop=1;jettySize=auto;html=1;entryX=0;entryY=0.5;entryDx=0;entryDy=0;" edge="1" parent="1" source="Mp6pbIfyjrRbvAWgAkd_-115" target="Mp6pbIfyjrRbvAWgAkd_-112">
          <mxGeometry relative="1" as="geometry" />
        </mxCell>
        <mxCell id="Mp6pbIfyjrRbvAWgAkd_-124" value="On Prem" style="edgeLabel;html=1;align=center;verticalAlign=middle;resizable=0;points=[];" vertex="1" connectable="0" parent="Mp6pbIfyjrRbvAWgAkd_-123">
          <mxGeometry x="0.1778" y="2" relative="1" as="geometry">
            <mxPoint as="offset" />
          </mxGeometry>
        </mxCell>
        <mxCell id="Mp6pbIfyjrRbvAWgAkd_-125" style="edgeStyle=orthogonalEdgeStyle;rounded=0;orthogonalLoop=1;jettySize=auto;html=1;entryX=0;entryY=0.5;entryDx=0;entryDy=0;" edge="1" parent="1" source="Mp6pbIfyjrRbvAWgAkd_-115" target="Mp6pbIfyjrRbvAWgAkd_-119">
          <mxGeometry relative="1" as="geometry" />
        </mxCell>
        <mxCell id="Mp6pbIfyjrRbvAWgAkd_-126" value="Cloud" style="edgeLabel;html=1;align=center;verticalAlign=middle;resizable=0;points=[];" vertex="1" connectable="0" parent="Mp6pbIfyjrRbvAWgAkd_-125">
          <mxGeometry x="0.0294" y="1" relative="1" as="geometry">
            <mxPoint as="offset" />
          </mxGeometry>
        </mxCell>
        <mxCell id="Mp6pbIfyjrRbvAWgAkd_-115" value="" style="rhombus;whiteSpace=wrap;html=1;" vertex="1" parent="1">
          <mxGeometry x="1550" y="173.5" width="80" height="80" as="geometry" />
        </mxCell>
        <mxCell id="Mp6pbIfyjrRbvAWgAkd_-116" value="" style="sketch=0;pointerEvents=1;shadow=0;dashed=0;html=1;strokeColor=none;fillColor=#505050;labelPosition=center;verticalLabelPosition=bottom;verticalAlign=top;outlineConnect=0;align=center;shape=mxgraph.office.concepts.settings_office_365;" vertex="1" parent="1">
          <mxGeometry x="1566" y="189" width="48" height="48" as="geometry" />
        </mxCell>
        <mxCell id="Mp6pbIfyjrRbvAWgAkd_-119" value="" style="rounded=1;whiteSpace=wrap;html=1;" vertex="1" parent="1">
          <mxGeometry x="1710" y="227.5" width="100" height="114" as="geometry" />
        </mxCell>
        <mxCell id="Mp6pbIfyjrRbvAWgAkd_-127" value="" style="shape=image;html=1;verticalAlign=top;verticalLabelPosition=bottom;labelBackgroundColor=#ffffff;imageAspect=0;aspect=fixed;image=https://cdn4.iconfinder.com/data/icons/software-engineering-and-video-gaming/512/604_Code_executable_file_running_script-128.png" vertex="1" parent="1">
          <mxGeometry x="1282" y="570" width="128" height="128" as="geometry" />
        </mxCell>
      </root>
    </mxGraphModel>
  </diagram>
</mxfile>
